<svg xmlns="http://www.w3.org/2000/svg" style="background:0 0" width="365.61" height="118.387" preserveAspectRatio="xMidYMid" viewBox="67.195 15.806 365.61 118.387"><defs><linearGradient id="editing-outline-gradient" x1="-.414" x2="1.414" y1=".093" y2=".907"><stop offset="0" stop-color="#ee4208"/><stop offset="1" stop-color="#4139ff"/></linearGradient><filter id="editing-outline" width="300%" height="300%" x="-100%" y="-100%"><feMorphology in="SourceGraphic" operator="dilate" radius="1" result="outline"/><feComposite in="outline" in2="SourceAlpha" operator="out"/></filter></defs><g filter="url(#editing-outline)"><g><path fill="url(#editing-outline-gradient)" d="M6.27-22.08L6.27-22.08Q6.27-15.87 7.20-12.48L7.20-12.48L7.20-12.48Q8.13-9.09 9.70-7.84L9.70-7.84L9.70-7.84Q11.26-6.59 13.57-6.59L13.57-6.59L13.57-6.59Q16.13-6.59 17.76-7.97L17.76-7.97L17.76-7.97Q19.39-9.34 20.10-11.26L20.10-11.26L20.10-11.26Q20.80-13.18 20.80-14.91L20.80-14.91L20.99-32.58L20.99-32.58Q20.86-34.50 20.86-36.80L20.86-36.80L20.93-43.01L20.93-43.01Q20.80-44.61 21.25-45.02L21.25-45.02L21.25-45.02Q21.70-45.44 22.53-45.44L22.53-45.44L22.53-45.44Q22.91-45.50 23.74-45.60L23.74-45.60L23.74-45.60Q24.58-45.70 25.28-45.70L25.28-45.70L25.28-45.70Q25.98-45.70 26.30-45.63L26.30-45.63L26.30-45.63Q27.39-45.57 27.65-45.22L27.65-45.22L27.65-45.22Q27.90-44.86 27.84-43.52L27.84-43.52L27.71-23.94L27.71-23.94Q27.65-23.49 27.68-22.94L27.68-22.94L27.68-22.94Q27.71-22.40 27.71-21.95L27.71-21.95L27.71-19.90L27.71-19.90Q27.71 0.45 15.62 0.45L15.62 0.45L15.62 0.45Q9.28 0.45 5.86-2.72L5.86-2.72L5.86-2.72Q2.43-5.89 1.38-9.57L1.38-9.57L1.38-9.57Q0.32-13.25 0.32-15.81L0.32-15.81L0.38-21.31L0.38-21.31Q0.45-22.53 0.45-24.06L0.45-24.06L0.45-24.06Q0.45-24.90 0.64-25.06L0.64-25.06L0.64-25.06Q0.83-25.22 1.41-25.15L1.41-25.15L1.41-25.15Q2.11-25.15 5.38-25.60L5.38-25.60L5.38-25.60Q6.53-25.66 6.53-24.45L6.53-24.45L6.53-24.45Q6.53-24.06 6.40-23.36L6.40-23.36L6.40-23.36Q6.27-22.66 6.27-22.08L6.27-22.08ZM48.90-45.70L48.90-45.70Q55.30-45.70 58.50-42.02L58.50-42.02L58.50-42.02Q61.70-38.34 62.59-33.31L62.59-33.31L62.59-33.31Q63.49-28.29 63.49-21.95L63.49-21.95L63.49-21.95Q63.49-16.83 61.95-11.42L61.95-11.42L61.95-11.42Q60.42-6.02 57.22-2.30L57.22-2.30L57.22-2.30Q54.02 1.41 49.34 1.41L49.34 1.41L49.34 1.41Q40.19 1.41 37.18-6.30L37.18-6.30L37.18-6.30Q34.18-14.02 34.18-22.85L34.18-22.85L34.18-22.85Q34.18-31.36 36.51-36.48L36.51-36.48L36.51-36.48Q38.85-41.60 42.21-43.65L42.21-43.65L42.21-43.65Q45.57-45.70 48.90-45.70L48.90-45.70ZM48.83-14.85L48.83-14.85Q50.56-14.85 51.39-16.77L51.39-16.77L51.39-16.77Q52.22-18.69 52.22-21.38L52.22-21.38L52.22-21.38Q52.22-23.94 51.42-25.86L51.42-25.86L51.42-25.86Q50.62-27.78 49.28-27.78L49.28-27.78L49.28-27.78Q47.68-27.78 46.88-25.57L46.88-25.57L46.88-25.57Q46.08-23.36 46.08-20.80L46.08-20.80L46.08-20.80Q46.08-18.18 46.59-16.51L46.59-16.51L46.59-16.51Q47.10-14.85 48.83-14.85L48.83-14.85ZM75.26-46.27L80.70-46.34L80.70-46.34Q82.11-46.34 82.78-46.05L82.78-46.05L82.78-46.05Q83.46-45.76 83.84-45.06L83.84-45.06L83.84-45.06Q84.48-43.71 85.44-41.60L85.44-41.60L87.81-36.48L90.82-29.89L90.82-29.89Q91.65-28.10 92.99-25.15L92.99-25.15L92.99-25.15Q94.34-22.21 94.91-21.06L94.91-21.06L94.91-21.06Q96.00-18.82 96.32-18.30L96.32-18.30L98.11-14.78L100.10-10.88L99.97-14.59L99.71-20.86L99.71-22.78L99.71-22.78Q99.71-26.30 99.84-29.89L99.84-29.89L99.84-29.89Q99.84-32.58 99.78-34.24L99.78-34.24L99.71-39.10L99.97-45.25L99.97-45.25Q99.97-46.21 100.93-46.21L100.93-46.21L100.93-46.21Q101.25-46.21 102.21-46.02L102.21-46.02L102.21-46.02Q102.78-45.89 103.42-45.89L103.42-45.89L103.42-45.89Q104.06-45.89 104.45-45.89L104.45-45.89L104.45-45.89Q104.96-45.89 105.12-45.76L105.12-45.76L105.12-45.76Q105.28-45.63 105.28-45.31L105.28-45.31L105.28-45.31Q105.28-45.06 105.22-44.74L105.22-44.74L105.22-44.74Q105.15-44.42 105.15-44.03L105.15-44.03L105.09-38.53L104.96-25.60L104.90-23.74L104.90-23.74Q104.90-21.57 104.96-19.78L104.96-19.78L104.96-19.78Q105.02-17.98 105.09-16.83L105.09-16.83L105.09-16.83Q105.28-14.08 105.28-12.22L105.28-12.22L105.28-12.22Q105.28-12.48 105.47-4.61L105.47-4.61L105.60-1.02L105.60-0.90L105.60-0.90Q105.60 0.38 104.38 0.26L104.38 0.26L104.38 0.26Q104.19 0.19 103.62 0.19L103.62 0.19L101.76 0.26L101.38 0.26L101.38 0.26Q100.93 0.26 100.70 0.06L100.70 0.06L100.70 0.06Q100.48-0.13 99.97-1.02L99.97-1.02L99.97-1.02Q99.78-1.47 99.46-2.30L99.46-2.30L99.46-2.30Q99.14-3.14 98.69-4.16L98.69-4.16L98.69-4.16Q95.94-11.07 94.72-13.57L94.72-13.57L94.72-13.57Q93.31-16.26 87.62-28.99L87.62-28.99L87.62-28.99Q86.34-31.62 84.74-34.56L84.74-34.56L82.88-37.89L83.07-31.81L83.14-28.03L83.14-28.03Q83.26-23.81 83.26-22.46L83.26-22.46L83.26-22.46Q83.26-17.22 83.46-11.90L83.46-11.90L83.52-6.91L83.52-6.91Q83.52-5.57 83.65-3.01L83.65-3.01L83.78-0.77L83.78-0.64L83.78-0.64Q83.78 0 83.46 0.19L83.46 0.19L83.46 0.19Q83.14 0.38 82.56 0.38L82.56 0.38L81.15 0.45L81.15 0.45Q79.81 0.64 78.27 0.64L78.27 0.64L78.27 0.64Q76.48 0.64 75.33 0.70L75.33 0.70L72.06 0.77L72.06 0.77Q71.10 0.77 70.78 0.42L70.78 0.42L70.78 0.42Q70.46 0.06 70.40-0.38L70.40-0.38L70.40-0.38Q70.34-0.83 70.27-1.02L70.27-1.02L70.27-1.02Q70.02-2.18 70.02-3.84L70.02-3.84L70.02-3.84Q70.02-5.38 70.08-6.46L70.08-6.46L70.08-6.46Q70.08-9.79 70.21-14.24L70.21-14.24L70.21-14.24Q70.34-18.69 70.53-20.61L70.53-20.61L70.85-25.15L70.85-25.15Q71.62-35.78 71.62-37.12L71.62-37.12L71.62-37.12Q71.62-42.18 71.81-44.67L71.81-44.67L71.81-44.67Q71.94-46.40 73.60-46.40L73.60-46.40L73.60-46.40Q74.11-46.40 74.56-46.34L74.56-46.34L74.56-46.34Q75.01-46.27 75.26-46.27L75.26-46.27ZM126.66-45.89L126.66-45.89Q132.74-45.89 136.67-43.49L136.67-43.49L136.67-43.49Q140.61-41.09 142.78-38.91L142.78-38.91L142.78-38.91Q143.04-38.66 143.04-38.34L143.04-38.34L143.04-38.34Q143.04-38.14 142.88-37.86L142.88-37.86L142.88-37.86Q142.72-37.57 142.66-37.44L142.66-37.44L142.66-37.44Q142.34-36.99 141.60-35.87L141.60-35.87L141.60-35.87Q140.86-34.75 140.42-34.24L140.42-34.24L140.42-34.24Q140.22-33.98 140.00-33.70L140.00-33.70L140.00-33.70Q139.78-33.41 139.62-33.28L139.62-33.28L139.62-33.28Q139.46-33.15 139.14-33.15L139.14-33.15L139.14-33.15Q139.01-33.15 138.53-33.57L138.53-33.57L138.53-33.57Q138.05-33.98 137.60-34.30L137.60-34.30L137.60-34.30Q135.04-36.54 132.61-38.14L132.61-38.14L132.61-38.14Q130.18-39.74 127.94-39.74L127.94-39.74L127.94-39.74Q126.14-39.74 124.99-38.94L124.99-38.94L124.99-38.94Q123.84-38.14 123.84-35.33L123.84-35.33L123.84-35.33Q123.84-32.58 125.89-31.04L125.89-31.04L125.89-31.04Q127.94-29.50 131.33-28.10L131.33-28.10L131.33-28.10Q131.65-27.97 135.07-26.50L135.07-26.50L135.07-26.50Q138.50-25.02 141.15-20.86L141.15-20.86L141.15-20.86Q143.81-16.70 143.81-10.94L143.81-10.94L143.81-10.94Q143.81-4.80 139.20-1.73L139.20-1.73L139.20-1.73Q134.59 1.34 126.46 1.34L126.46 1.34L126.46 1.34Q117.25 1.34 114.75-2.21L114.75-2.21L114.75-2.21Q112.26-5.76 112.13-5.89L112.13-5.89L112.13-5.89Q111.87-6.21 111.87-6.53L111.87-6.53L111.87-6.53Q111.87-6.72 112.38-7.36L112.38-7.36L112.38-7.36Q113.22-8.51 114.82-10.11L114.82-10.11L114.82-10.11Q115.07-10.37 115.33-10.37L115.33-10.37L115.33-10.37Q115.65-10.37 116.03-9.89L116.03-9.89L116.03-9.89Q116.42-9.41 116.67-9.15L116.67-9.15L116.67-9.15Q120.45-5.38 125.25-5.38L125.25-5.38L125.25-5.38Q127.68-5.38 129.47-6.30L129.47-6.30L129.47-6.30Q131.26-7.23 131.26-9.79L131.26-9.79L131.26-9.79Q131.26-14.21 124.29-19.20L124.29-19.20L124.29-19.20Q123.14-19.97 122.11-20.48L122.11-20.48L122.11-20.48Q119.42-21.95 117.50-23.36L117.50-23.36L117.50-23.36Q115.58-24.77 114.11-27.07L114.11-27.07L114.11-27.07Q112.64-29.38 112.64-32.45L112.64-32.45L112.64-32.45Q112.64-36.29 115.04-39.36L115.04-39.36L115.04-39.36Q117.44-42.43 120.80-44.16L120.80-44.16L120.80-44.16Q124.16-45.89 126.66-45.89L126.66-45.89ZM163.97-34.82L163.97-34.82Q162.37-34.82 160.80-33.47L160.80-33.47L160.80-33.47Q159.23-32.13 158.14-29.02L158.14-29.02L158.14-29.02Q157.06-25.92 157.06-21.06L157.06-21.06L157.06-21.06Q157.06-16.32 158.43-13.54L158.43-13.54L158.43-13.54Q159.81-10.75 161.57-9.66L161.57-9.66L161.57-9.66Q163.33-8.58 164.61-8.58L164.61-8.58L164.61-8.58Q165.76-8.58 166.98-9.38L166.98-9.38L166.98-9.38Q168.19-10.18 169.09-11.07L169.09-11.07L169.09-11.07Q169.22-11.20 169.50-11.52L169.50-11.52L169.50-11.52Q169.79-11.84 170.05-11.84L170.05-11.84L170.05-11.84Q170.37-11.84 170.82-11.58L170.82-11.58L176.26-8.58L176.26-8.58Q176.51-8.45 177.06-8.22L177.06-8.22L177.06-8.22Q177.60-8 177.82-7.81L177.82-7.81L177.82-7.81Q178.05-7.62 178.05-7.30L178.05-7.30L178.05-7.30Q178.05-6.98 177.86-6.59L177.86-6.59L177.86-6.59Q176.45-4.22 173.44-1.73L173.44-1.73L173.44-1.73Q170.43 0.77 165.12 0.77L165.12 0.77L165.12 0.77Q160.96 0.77 157.15-2.34L157.15-2.34L157.15-2.34Q153.34-5.44 151.04-10.82L151.04-10.82L151.04-10.82Q148.74-16.19 148.74-22.66L148.74-22.66L148.74-22.66Q148.74-29.06 150.94-34.18L150.94-34.18L150.94-34.18Q153.15-39.30 156.61-42.18L156.61-42.18L156.61-42.18Q160.06-45.06 163.71-45.06L163.71-45.06L163.71-45.06Q168.26-45.06 171.04-43.17L171.04-43.17L171.04-43.17Q173.82-41.28 175.04-39.55L175.04-39.55L175.04-39.55Q175.30-39.17 175.52-38.85L175.52-38.85L175.52-38.85Q175.74-38.53 175.74-38.21L175.74-38.21L175.74-38.21Q175.74-37.82 175.04-37.18L175.04-37.18L175.04-37.18Q172.10-34.88 170.82-33.15L170.82-33.15L170.82-33.15Q170.18-32.32 169.73-31.90L169.73-31.90L169.73-31.90Q169.28-31.49 168.83-31.49L168.83-31.49L168.83-31.49Q168.38-31.49 167.81-32.13L167.81-32.13L167.81-32.13Q166.46-33.60 165.73-34.21L165.73-34.21L165.73-34.21Q164.99-34.82 163.97-34.82L163.97-34.82ZM192.90-25.22L196.74-25.09L199.10-25.02L199.10-25.02Q202.18-24.90 203.39-24.90L203.39-24.90L203.39-24.90Q208.38-24.90 211.01-24.96L211.01-24.96L211.01-24.96Q214.14-24.96 215.81-25.02L215.81-25.02L215.81-26.94L215.74-30.46L215.74-30.46Q215.74-32.90 216.00-40.45L216.00-40.45L216.13-44.93L216.13-44.93Q216.19-45.50 216.83-45.50L216.83-45.50L217.54-45.44L217.54-45.44Q217.79-45.38 218.50-45.38L218.50-45.38L218.50-45.38Q219.26-45.38 219.58-45.25L219.58-45.25L219.58-45.25Q220.22-45.06 220.22-44.61L220.22-44.61L220.10-44.10L220.10-44.10Q220.03-43.65 219.90-42.40L219.90-42.40L219.90-42.40Q219.78-41.15 219.52-38.59L219.52-38.59L219.52-38.59Q219.33-36.67 219.20-29.86L219.20-29.86L219.20-29.86Q219.07-23.04 219.07-19.20L219.07-19.20L219.07-19.20Q219.07-16.51 218.82-9.86L218.82-9.86L218.69-5.63L218.62-3.07L218.62-3.07Q218.62-2.11 218.75-1.22L218.75-1.22L218.82-0.83L218.82-0.83Q218.82-0.45 218.53-0.42L218.53-0.42L218.53-0.42Q218.24-0.38 218.18-0.38L218.18-0.38L218.18-0.38Q217.54-0.26 215.87-0.26L215.87-0.26L215.87-0.26Q215.36-0.26 215.36-0.90L215.36-0.90L215.42-10.24L215.42-10.24Q215.36-11.26 215.39-12.38L215.39-12.38L215.39-12.38Q215.42-13.50 215.42-14.40L215.42-14.40L215.42-17.09L215.42-21.82L210.24-21.70L210.24-21.70Q207.49-21.63 202.82-21.63L202.82-21.63L196.80-21.63L196.80-21.63Q194.37-21.63 193.02-21.70L193.02-21.70L193.02-21.70Q193.02-20.61 192.96-20.03L192.96-20.03L192.96-20.03Q192.83-17.98 192.83-16.13L192.83-16.13L192.77-9.22L192.77-9.22Q192.77-4.16 193.09-2.56L193.09-2.56L193.09-2.56Q193.22-1.79 193.22-1.60L193.22-1.60L193.22-1.60Q193.22-0.70 192.74-0.48L192.74-0.48L192.74-0.48Q192.26-0.26 191.71-0.29L191.71-0.29L191.71-0.29Q191.17-0.32 190.98-0.32L190.98-0.32L190.98-0.32Q188.74-0.45 185.86-0.13L185.86-0.13L185.86-0.13Q184.77 0 184.54-0.64L184.54-0.64L184.54-0.64Q184.32-1.28 184.35-2.43L184.35-2.43L184.35-2.43Q184.38-3.58 184.38-4.16L184.38-4.16L184.26-26.30L184.38-42.88L184.38-42.88Q184.38-44.16 184.67-44.51L184.67-44.51L184.67-44.51Q184.96-44.86 185.60-44.86L185.60-44.86L187.01-44.80L187.01-44.80Q187.33-44.80 188.48-44.93L188.48-44.93L188.48-44.93Q188.80-44.99 189.57-44.99L189.57-44.99L191.23-44.93L191.23-44.93Q191.74-44.86 192.64-44.86L192.64-44.86L192.64-44.86Q193.34-44.86 193.50-44.45L193.50-44.45L193.50-44.45Q193.66-44.03 193.63-43.58L193.63-43.58L193.63-43.58Q193.60-43.14 193.60-42.94L193.60-42.94L193.60-42.94Q193.60-40 193.34-35.33L193.34-35.33L193.09-28.99L192.90-25.22ZM255.36-0.90L255.36-0.90Q255.55-0.45 255.55-0.26L255.55-0.26L255.55-0.26Q255.55 0 254.85 0L254.85 0L251.26 0L251.26 0Q251.01 0 250.85-0.10L250.85-0.10L250.85-0.10Q250.69-0.19 250.56-0.58L250.56-0.58L250.56-0.58Q250.30-1.28 249.86-2.88L249.86-2.88L249.86-2.88Q249.28-4.48 249.09-5.76L249.09-5.76L249.09-5.76Q248.90-6.72 248.48-8.06L248.48-8.06L248.48-8.06Q248.06-9.41 247.74-10.11L247.74-10.11L247.74-10.11Q247.17-11.33 246.72-12.86L246.72-12.86L246.14-14.72L246.14-14.72Q245.82-15.42 245.66-15.58L245.66-15.58L245.66-15.58Q245.50-15.74 245.12-15.74L245.12-15.74L245.12-15.74Q243.78-15.74 243.14-15.68L243.14-15.68L240.38-15.55L240.38-15.55Q239.87-15.49 235.65-15.49L235.65-15.49L231.74-15.49L231.62-15.49L231.62-15.49Q231.23-15.49 231.04-14.78L231.04-14.78L230.91-14.14L230.66-12.93L230.66-12.93Q230.53-12.61 229.82-9.22L229.82-9.22L229.82-9.22Q229.63-8.13 229.18-6.40L229.18-6.40L229.18-6.40Q229.06-5.12 228.61-4.29L228.61-4.29L228.61-4.29Q228.48-4.10 228.29-3.39L228.29-3.39L228.29-3.39Q228.10-2.69 227.97-2.24L227.97-2.24L227.97-2.24Q227.78-1.73 227.52-0.58L227.52-0.58L227.52-0.58Q227.46-0.51 227.39-0.29L227.39-0.29L227.39-0.29Q227.33-0.06 227.20-0.03L227.20-0.03L227.20-0.03Q227.07 0 226.82 0L226.82 0L225.54 0L225.54 0Q224.96 0 225.22-0.83L225.22-0.83L225.22-0.83Q225.22-1.02 225.28-1.15L225.28-1.15L225.28-1.15Q225.28-1.28 225.34-1.47L225.34-1.47L225.34-1.47Q225.41-1.66 225.54-2.05L225.54-2.05L226.11-4.42L226.11-4.42Q226.24-4.80 226.56-5.76L226.56-5.76L226.56-5.76Q226.88-6.72 227.01-7.55L227.01-7.55L227.01-7.55Q227.33-9.09 228.22-12.22L228.22-12.22L228.74-14.02L228.74-14.02Q229.95-17.98 230.27-19.58L230.27-19.58L231.17-22.98L231.17-22.98Q231.81-25.09 231.94-25.66L231.94-25.66L231.94-25.66Q232.38-27.58 233.22-30.46L233.22-30.46L233.66-32.26L234.05-33.60L234.05-33.60Q234.69-35.78 235.14-36.74L235.14-36.74L235.14-36.74Q235.26-37.12 236.06-39.39L236.06-39.39L236.06-39.39Q236.86-41.66 237.12-43.01L237.12-43.01L237.12-43.01Q237.57-44.54 238.05-45.31L238.05-45.31L238.05-45.31Q238.53-46.08 239.36-46.08L239.36-46.08L239.36-46.08Q239.68-46.08 240.00-45.50L240.00-45.50L240.00-45.50Q240.32-44.93 240.64-44.10L240.64-44.10L240.64-44.10Q240.96-43.26 241.09-42.88L241.09-42.88L241.09-42.88Q241.60-41.66 242.88-36.80L242.88-36.80L243.39-35.01L243.39-35.01Q243.46-34.50 245.50-28.74L245.50-28.74L246.72-25.22L247.87-22.21L247.87-22.21Q249.66-17.15 250.18-16.06L250.18-16.06L250.18-16.06Q252.42-9.28 252.80-7.87L252.80-7.87L252.80-7.87Q253.25-6.21 254.24-3.71L254.24-3.71L254.24-3.71Q255.23-1.22 255.36-0.90L255.36-0.90ZM243.39-19.90L243.39-19.90Q244.22-19.90 244.22-20.35L244.22-20.35L244.22-20.35Q244.22-20.67 243.78-21.76L243.78-21.76L243.78-21.76Q243.39-22.72 242.62-25.34L242.62-25.34L242.62-25.34Q242.05-27.46 241.47-28.99L241.47-28.99L241.47-28.99Q240.83-30.91 240.10-33.54L240.10-33.54L240.10-33.54Q239.36-36.16 239.23-36.93L239.23-36.93L239.23-36.93Q238.27-40.32 237.95-40.32L237.95-40.32L237.95-40.32Q237.76-40.32 237.31-38.59L237.31-38.59L236.93-37.18L236.93-37.18Q236.48-35.46 235.78-32.86L235.78-32.86L235.78-32.86Q235.07-30.27 234.50-28.48L234.50-28.48L234.50-28.48Q234.11-26.82 233.44-24.29L233.44-24.29L233.44-24.29Q232.77-21.76 232.38-20.80L232.38-20.80L232.38-20.80Q232.26-20.42 232.26-20.35L232.26-20.35L232.26-20.35Q232.26-19.90 232.67-19.78L232.67-19.78L232.67-19.78Q233.09-19.65 233.50-19.68L233.50-19.68L233.50-19.68Q233.92-19.71 234.05-19.71L234.05-19.71L237.76-19.84L237.76-19.84Q238.53-19.97 239.94-19.97L239.94-19.97L243.39-19.90Z" transform="translate(122.0493771135807, 98.84250068664551)"/></g></g><style/></svg>